<svg width="734" height="463" viewBox="0 0 734 463" fill="none" xmlns="http://www.w3.org/2000/svg">
<rect width="734" height="463" fill="#ffffff"/>
<rect width="734" height="463" fill="transparent"/>
<path d="M474.558 341.54C472.298 340.036 469.775 338.945 467.387 337.627C465.8 336.852 464.285 335.939 462.861 334.897C460.587 333.022 461.043 329.329 463.445 327.719C466.852 325.43 472.519 326.728 473.104 331.382C473.107 331.431 473.129 331.476 473.165 331.509C473.201 331.542 473.247 331.561 473.296 331.561H478.443C478.472 331.561 478.5 331.555 478.527 331.543C478.554 331.531 478.577 331.514 478.597 331.493C478.616 331.471 478.631 331.446 478.64 331.418C478.649 331.391 478.652 331.361 478.649 331.332C478.371 328.118 477.153 325.445 474.886 323.734C472.789 322.119 470.219 321.237 467.572 321.225C453.936 321.225 452.696 335.659 460.031 340.214C460.886 340.742 468.078 344.356 470.623 345.917C473.168 347.478 473.966 350.372 472.861 352.66C471.856 354.756 469.247 356.16 466.638 356.024C463.787 355.875 461.577 354.321 460.8 351.904C460.675 351.369 460.608 350.822 460.601 350.272C460.597 350.22 460.574 350.171 460.536 350.135C460.497 350.099 460.447 350.079 460.394 350.08H454.791C454.736 350.081 454.683 350.105 454.645 350.145C454.606 350.185 454.585 350.238 454.585 350.293C454.585 354.342 455.597 356.58 458.32 358.626C460.706 360.437 463.629 361.4 466.624 361.363C474.244 361.363 478.222 357.044 479.006 352.567C479.79 348.091 478.5 344.149 474.558 341.54Z" fill="#161616"/>
<path d="M231.858 321.916H226.69C226.647 321.915 226.604 321.928 226.569 321.954C226.534 321.98 226.509 322.017 226.498 322.059L221.893 337.178C221.881 337.22 221.856 337.257 221.821 337.283C221.787 337.31 221.744 337.324 221.7 337.324C221.657 337.324 221.614 337.31 221.579 337.283C221.545 337.257 221.519 337.22 221.508 337.178L216.91 322.059C216.897 322.017 216.87 321.98 216.834 321.955C216.798 321.929 216.755 321.916 216.711 321.916H208.207C208.153 321.916 208.102 321.937 208.063 321.974C208.024 322.011 208.002 322.062 208 322.116V360.743C208 360.798 208.022 360.851 208.061 360.889C208.099 360.928 208.152 360.95 208.207 360.95H213.809C213.836 360.95 213.863 360.945 213.888 360.934C213.912 360.924 213.935 360.908 213.953 360.889C213.972 360.87 213.986 360.847 213.996 360.822C214.006 360.797 214.01 360.77 214.009 360.743V331.397C214.013 331.35 214.032 331.306 214.065 331.272C214.097 331.238 214.139 331.215 214.186 331.209C214.232 331.202 214.28 331.211 214.32 331.235C214.36 331.259 214.392 331.296 214.408 331.34L219.042 346.558L219.362 347.62C219.376 347.662 219.403 347.699 219.439 347.724C219.475 347.75 219.518 347.764 219.562 347.763H223.839C223.883 347.764 223.926 347.75 223.962 347.724C223.998 347.699 224.025 347.662 224.038 347.62L224.359 346.558L228.992 331.34C229.009 331.296 229.04 331.259 229.081 331.235C229.121 331.211 229.168 331.202 229.215 331.209C229.261 331.215 229.304 331.238 229.336 331.272C229.368 331.306 229.388 331.35 229.392 331.397V360.743C229.391 360.77 229.395 360.797 229.405 360.822C229.414 360.847 229.429 360.87 229.448 360.889C229.466 360.908 229.488 360.924 229.513 360.934C229.538 360.945 229.564 360.95 229.591 360.95H235.194C235.249 360.95 235.301 360.928 235.34 360.889C235.379 360.851 235.401 360.798 235.401 360.743V322.116C235.399 322.062 235.376 322.011 235.338 321.974C235.299 321.937 235.248 321.916 235.194 321.916H231.858Z" fill="#161616"/>
<path d="M388.956 321.916C388.913 321.917 388.871 321.931 388.837 321.957C388.802 321.982 388.776 322.018 388.763 322.059L384.165 337.178C384.152 337.219 384.125 337.254 384.09 337.28C384.055 337.305 384.013 337.319 383.969 337.319C383.926 337.319 383.884 337.305 383.849 337.28C383.814 337.254 383.787 337.219 383.773 337.178L379.176 322.059C379.163 322.017 379.138 321.981 379.103 321.955C379.069 321.93 379.027 321.916 378.983 321.916H370.479C370.426 321.916 370.374 321.937 370.336 321.974C370.297 322.011 370.275 322.062 370.273 322.116V360.743C370.273 360.798 370.294 360.851 370.333 360.889C370.372 360.928 370.425 360.95 370.479 360.95H376.082C376.136 360.948 376.187 360.926 376.224 360.887C376.261 360.848 376.282 360.797 376.282 360.743V331.397C376.286 331.35 376.305 331.306 376.337 331.272C376.369 331.238 376.412 331.215 376.459 331.209C376.505 331.202 376.552 331.211 376.593 331.235C376.633 331.259 376.664 331.296 376.681 331.34L381.314 346.558L381.635 347.62C381.648 347.661 381.674 347.697 381.708 347.722C381.743 347.748 381.785 347.762 381.827 347.763H386.104C386.148 347.764 386.191 347.751 386.225 347.725C386.26 347.699 386.286 347.662 386.297 347.62L386.625 346.558L391.251 331.34C391.268 331.296 391.299 331.259 391.339 331.235C391.38 331.211 391.427 331.202 391.473 331.209C391.52 331.215 391.562 331.238 391.595 331.272C391.627 331.306 391.646 331.35 391.65 331.397V360.743C391.65 360.798 391.672 360.851 391.711 360.889C391.749 360.928 391.802 360.95 391.857 360.95H397.46C397.513 360.948 397.564 360.926 397.601 360.887C397.638 360.848 397.659 360.797 397.659 360.743V322.116C397.657 322.063 397.636 322.014 397.599 321.977C397.562 321.94 397.512 321.918 397.46 321.916H388.956Z" fill="#161616"/>
<path d="M316.854 321.916H290.48C290.426 321.916 290.375 321.937 290.336 321.974C290.298 322.011 290.275 322.062 290.273 322.116V326.949C290.275 327.002 290.298 327.053 290.336 327.09C290.375 327.128 290.426 327.148 290.48 327.148H300.695V360.743C300.695 360.77 300.7 360.797 300.71 360.822C300.721 360.848 300.736 360.87 300.755 360.889C300.774 360.909 300.797 360.924 300.822 360.934C300.847 360.945 300.874 360.95 300.901 360.95H306.504C306.558 360.948 306.608 360.926 306.646 360.887C306.683 360.848 306.704 360.797 306.704 360.743V327.148H316.854C316.908 327.148 316.959 327.128 316.998 327.09C317.037 327.053 317.059 327.002 317.061 326.949V322.116C317.059 322.062 317.037 322.011 316.998 321.974C316.959 321.937 316.908 321.916 316.854 321.916Z" fill="#161616"/>
<path d="M349.851 360.95H354.94C354.971 360.95 355.002 360.943 355.03 360.929C355.058 360.915 355.082 360.895 355.101 360.87C355.12 360.845 355.132 360.816 355.138 360.786C355.143 360.755 355.141 360.723 355.133 360.693L344.654 321.938C344.642 321.894 344.615 321.856 344.579 321.829C344.543 321.802 344.5 321.788 344.455 321.788H337.141C337.096 321.788 337.052 321.802 337.016 321.829C336.98 321.856 336.954 321.894 336.941 321.938L326.427 360.693C326.42 360.724 326.419 360.755 326.426 360.786C326.432 360.817 326.446 360.846 326.465 360.87C326.484 360.895 326.509 360.915 326.537 360.929C326.565 360.943 326.596 360.95 326.627 360.95H331.716C331.761 360.948 331.804 360.932 331.839 360.904C331.874 360.875 331.898 360.837 331.909 360.793L334.967 349.531C334.978 349.488 335.003 349.45 335.038 349.423C335.072 349.396 335.115 349.381 335.159 349.381H346.408C346.451 349.382 346.494 349.398 346.528 349.424C346.563 349.451 346.588 349.489 346.6 349.531L349.644 360.786C349.652 360.834 349.678 360.877 349.716 360.907C349.754 360.937 349.802 360.953 349.851 360.95ZM336.492 343.892L340.584 328.802C340.598 328.761 340.624 328.725 340.659 328.7C340.694 328.675 340.737 328.661 340.78 328.661C340.823 328.661 340.866 328.675 340.901 328.7C340.936 328.725 340.962 328.761 340.976 328.802L345.068 343.892C345.076 343.922 345.078 343.954 345.073 343.984C345.067 344.015 345.055 344.044 345.036 344.069C345.017 344.094 344.993 344.114 344.965 344.128C344.937 344.142 344.906 344.149 344.875 344.149H336.692C336.661 344.149 336.63 344.142 336.602 344.128C336.574 344.114 336.549 344.094 336.53 344.069C336.511 344.044 336.497 344.016 336.491 343.985C336.484 343.954 336.485 343.923 336.492 343.892Z" fill="#161616"/>
<path d="M436.608 360.95H441.69C441.721 360.95 441.752 360.943 441.78 360.929C441.808 360.915 441.833 360.895 441.852 360.87C441.871 360.846 441.885 360.817 441.891 360.786C441.898 360.755 441.897 360.724 441.89 360.693L431.375 321.938C431.364 321.894 431.338 321.855 431.302 321.828C431.266 321.8 431.221 321.786 431.176 321.788H423.891C423.846 321.788 423.802 321.802 423.766 321.829C423.73 321.856 423.704 321.894 423.691 321.938L413.184 360.693C413.177 360.723 413.176 360.754 413.182 360.784C413.188 360.815 413.201 360.843 413.22 360.868C413.238 360.892 413.262 360.912 413.289 360.927C413.316 360.941 413.346 360.949 413.377 360.95H418.466C418.511 360.949 418.555 360.934 418.59 360.905C418.625 360.877 418.649 360.837 418.659 360.793L421.717 349.531C421.729 349.487 421.755 349.449 421.791 349.422C421.827 349.395 421.871 349.381 421.916 349.381H433.157C433.202 349.381 433.244 349.396 433.279 349.423C433.314 349.45 433.339 349.488 433.35 349.531L436.408 360.793C436.419 360.838 436.445 360.877 436.481 360.906C436.517 360.934 436.562 360.95 436.608 360.95ZM423.249 343.892L427.341 328.802C427.355 328.761 427.381 328.725 427.416 328.7C427.451 328.675 427.494 328.661 427.537 328.661C427.58 328.661 427.623 328.675 427.658 328.7C427.693 328.725 427.719 328.761 427.733 328.802L431.825 343.892C431.832 343.923 431.833 343.954 431.826 343.985C431.82 344.016 431.806 344.044 431.787 344.069C431.768 344.094 431.743 344.114 431.715 344.128C431.687 344.142 431.656 344.149 431.625 344.149H423.442C423.411 344.149 423.38 344.142 423.352 344.128C423.324 344.114 423.3 344.094 423.281 344.069C423.262 344.044 423.25 344.015 423.244 343.984C423.239 343.954 423.24 343.922 423.249 343.892Z" fill="#161616"/>
<path d="M258.018 355.24V343.251C258.017 343.224 258.022 343.198 258.031 343.173C258.041 343.149 258.056 343.126 258.075 343.107C258.093 343.089 258.116 343.074 258.14 343.064C258.165 343.055 258.191 343.05 258.218 343.051H273.102C273.155 343.049 273.206 343.027 273.243 342.988C273.28 342.95 273.301 342.898 273.301 342.844V338.019C273.301 337.965 273.28 337.914 273.243 337.875C273.206 337.836 273.155 337.814 273.102 337.812H258.218C258.165 337.812 258.114 337.791 258.077 337.754C258.039 337.716 258.018 337.665 258.018 337.612V327.355C258.017 327.328 258.022 327.301 258.031 327.276C258.041 327.251 258.056 327.229 258.074 327.209C258.093 327.19 258.115 327.175 258.14 327.164C258.165 327.154 258.191 327.148 258.218 327.148H275.154C275.208 327.148 275.26 327.128 275.298 327.09C275.337 327.053 275.359 327.002 275.361 326.949V322.116C275.359 322.062 275.337 322.011 275.298 321.974C275.26 321.937 275.208 321.916 275.154 321.916H252.209C252.156 321.916 252.105 321.937 252.068 321.975C252.03 322.012 252.009 322.063 252.009 322.116V360.743C252.008 360.77 252.013 360.797 252.022 360.822C252.032 360.847 252.047 360.87 252.065 360.889C252.084 360.908 252.106 360.924 252.131 360.934C252.156 360.945 252.182 360.95 252.209 360.95H275.882C275.936 360.95 275.989 360.928 276.028 360.889C276.066 360.851 276.088 360.798 276.088 360.743V355.647C276.088 355.592 276.066 355.539 276.028 355.501C275.989 355.462 275.936 355.44 275.882 355.44H258.218C258.191 355.441 258.165 355.436 258.14 355.427C258.116 355.417 258.093 355.402 258.075 355.384C258.056 355.365 258.041 355.343 258.031 355.318C258.022 355.293 258.017 355.267 258.018 355.24Z" fill="#161616"/>
<path d="M525.652 360.601L506.307 340.606C506.288 340.588 506.273 340.565 506.262 340.541C506.252 340.517 506.247 340.49 506.247 340.464C506.247 340.437 506.252 340.411 506.262 340.386C506.273 340.362 506.288 340.34 506.307 340.321L523.707 322.294C523.735 322.266 523.754 322.23 523.762 322.191C523.77 322.152 523.766 322.111 523.751 322.075C523.736 322.038 523.71 322.006 523.676 321.985C523.643 321.963 523.604 321.951 523.564 321.952H516.443C516.415 321.952 516.387 321.958 516.361 321.969C516.336 321.98 516.313 321.996 516.293 322.016L501.524 337.349C501.495 337.379 501.458 337.399 501.418 337.408C501.378 337.417 501.336 337.413 501.297 337.398C501.259 337.383 501.226 337.356 501.203 337.322C501.18 337.288 501.167 337.247 501.167 337.206V322.116C501.167 322.063 501.146 322.012 501.109 321.975C501.071 321.937 501.021 321.916 500.968 321.916H495.365C495.311 321.916 495.26 321.937 495.221 321.974C495.183 322.011 495.16 322.062 495.158 322.116V360.743C495.158 360.798 495.18 360.851 495.219 360.889C495.257 360.928 495.31 360.95 495.365 360.95H500.968C500.994 360.95 501.021 360.945 501.046 360.934C501.07 360.924 501.093 360.908 501.111 360.889C501.13 360.87 501.145 360.847 501.154 360.822C501.164 360.797 501.168 360.77 501.167 360.743V343.743C501.169 343.703 501.181 343.664 501.204 343.631C501.227 343.599 501.259 343.573 501.296 343.558C501.333 343.543 501.373 343.539 501.412 343.547C501.451 343.554 501.488 343.573 501.517 343.6L518.246 360.886C518.284 360.925 518.335 360.948 518.389 360.95H525.517C525.556 360.947 525.594 360.934 525.626 360.91C525.657 360.887 525.682 360.855 525.696 360.819C525.71 360.782 525.714 360.742 525.706 360.703C525.698 360.665 525.68 360.629 525.652 360.601Z" fill="#161616"/>
<path d="M449.973 101L377.893 154.476L391.28 122.926L449.973 101Z" fill="#E17726" stroke="#E17726" stroke-width="0.712817" stroke-linecap="round" stroke-linejoin="round"/>
<path d="M283.744 101L355.168 154.982L342.437 122.926L283.744 101Z" fill="#E27625" stroke="#E27625" stroke-width="0.712817" stroke-linecap="round" stroke-linejoin="round"/>
<path d="M424.062 224.966L404.887 254.348L445.917 265.632L457.643 225.615L424.062 224.966Z" fill="#E27625" stroke="#E27625" stroke-width="0.712817" stroke-linecap="round" stroke-linejoin="round"/>
<path d="M276.145 225.615L287.8 265.632L328.83 254.348L309.726 224.966L276.145 225.615Z" fill="#E27625" stroke="#E27625" stroke-width="0.712817" stroke-linecap="round" stroke-linejoin="round"/>
<path d="M326.584 175.318L315.151 192.618L355.824 194.429L354.448 150.641L326.584 175.318Z" fill="#E27625" stroke="#E27625" stroke-width="0.712817" stroke-linecap="round" stroke-linejoin="round"/>
<path d="M407.133 175.318L378.834 150.134L377.893 194.429L418.566 192.618L407.133 175.318Z" fill="#E27625" stroke="#E27625" stroke-width="0.712817" stroke-linecap="round" stroke-linejoin="round"/>
<path d="M328.83 254.348L353.365 242.401L332.23 225.907L328.83 254.348Z" fill="#E27625" stroke="#E27625" stroke-width="0.712817" stroke-linecap="round" stroke-linejoin="round"/>
<path d="M380.352 242.401L404.887 254.348L401.487 225.907L380.352 242.401Z" fill="#E27625" stroke="#E27625" stroke-width="0.712817" stroke-linecap="round" stroke-linejoin="round"/>
<path d="M404.887 254.348L380.352 242.401L382.305 258.397L382.091 265.126L404.887 254.348Z" fill="#D5BFB2" stroke="#D5BFB2" stroke-width="0.712817" stroke-linecap="round" stroke-linejoin="round"/>
<path d="M328.83 254.348L351.625 265.126L351.483 258.397L353.365 242.401L328.83 254.348Z" fill="#D5BFB2" stroke="#D5BFB2" stroke-width="0.712817" stroke-linecap="round" stroke-linejoin="round"/>
<path d="M352.06 215.336L331.652 209.334L346.051 202.747L352.06 215.336Z" fill="#233447" stroke="#233447" stroke-width="0.712817" stroke-linecap="round" stroke-linejoin="round"/>
<path d="M381.656 215.336L387.666 202.747L402.136 209.334L381.656 215.336Z" fill="#233447" stroke="#233447" stroke-width="0.712817" stroke-linecap="round" stroke-linejoin="round"/>
<path d="M328.83 254.348L332.372 224.966L309.726 225.615L328.83 254.348Z" fill="#CC6228" stroke="#CC6228" stroke-width="0.712817" stroke-linecap="round" stroke-linejoin="round"/>
<path d="M401.344 224.966L404.887 254.348L424.062 225.615L401.344 224.966Z" fill="#CC6228" stroke="#CC6228" stroke-width="0.712817" stroke-linecap="round" stroke-linejoin="round"/>
<path d="M418.566 192.618L377.893 194.429L381.656 215.336L387.666 202.747L402.136 209.334L418.566 192.618Z" fill="#CC6228" stroke="#CC6228" stroke-width="0.712817" stroke-linecap="round" stroke-linejoin="round"/>
<path d="M331.652 209.334L346.051 202.747L352.06 215.336L355.824 194.429L315.151 192.618L331.652 209.334Z" fill="#CC6228" stroke="#CC6228" stroke-width="0.712817" stroke-linecap="round" stroke-linejoin="round"/>
<path d="M315.151 192.618L332.23 225.907L331.652 209.334L315.151 192.618Z" fill="#E27525" stroke="#E27525" stroke-width="0.712817" stroke-linecap="round" stroke-linejoin="round"/>
<path d="M402.136 209.334L401.487 225.907L418.566 192.618L402.136 209.334Z" fill="#E27525" stroke="#E27525" stroke-width="0.712817" stroke-linecap="round" stroke-linejoin="round"/>
<path d="M355.824 194.429L352.06 215.336L356.836 240.014L357.848 207.523L355.824 194.429Z" fill="#E27525" stroke="#E27525" stroke-width="0.712817" stroke-linecap="round" stroke-linejoin="round"/>
<path d="M377.893 194.429L375.94 207.452L376.881 240.014L381.656 215.336L377.893 194.429Z" fill="#E27525" stroke="#E27525" stroke-width="0.712817" stroke-linecap="round" stroke-linejoin="round"/>
<path d="M381.656 215.336L376.881 240.014L380.352 242.401L401.487 225.907L402.136 209.334L381.656 215.336Z" fill="#F5841F" stroke="#F5841F" stroke-width="0.712817" stroke-linecap="round" stroke-linejoin="round"/>
<path d="M331.652 209.334L332.23 225.907L353.365 242.401L356.836 240.014L352.06 215.336L331.652 209.334Z" fill="#F5841F" stroke="#F5841F" stroke-width="0.712817" stroke-linecap="round" stroke-linejoin="round"/>
<path d="M382.091 265.126L382.305 258.397L380.502 256.807H353.215L351.483 258.397L351.625 265.126L328.83 254.348L336.792 260.856L353.001 272.076H380.716L396.925 260.856L404.887 254.348L382.091 265.126Z" fill="#C0AC9D" stroke="#C0AC9D" stroke-width="0.712817" stroke-linecap="round" stroke-linejoin="round"/>
<path d="M380.352 242.401L376.881 240.014H356.836L353.365 242.401L351.483 258.397L353.215 256.808H380.502L382.305 258.397L380.352 242.401Z" fill="#161616" stroke="#161616" stroke-width="0.712817" stroke-linecap="round" stroke-linejoin="round"/>
<path d="M453.009 157.954L459.09 128.429L449.973 101L380.352 152.672L407.133 175.318L444.976 186.395L453.302 176.623L449.681 174.021L455.469 168.732L451.056 165.26L456.844 160.848L453.009 157.954Z" fill="#763E1A" stroke="#763E1A" stroke-width="0.712817" stroke-linecap="round" stroke-linejoin="round"/>
<path d="M274.627 128.429L280.779 157.954L276.872 160.848L282.66 165.26L278.248 168.732L284.036 174.021L280.415 176.623L288.741 186.395L326.584 175.318L353.365 152.672L283.744 101L274.627 128.429Z" fill="#763E1A" stroke="#763E1A" stroke-width="0.712817" stroke-linecap="round" stroke-linejoin="round"/>
<path d="M444.976 186.395L407.133 175.318L418.566 192.618L401.487 225.907L424.062 225.615H457.643L444.976 186.395Z" fill="#F5841F" stroke="#F5841F" stroke-width="0.712817" stroke-linecap="round" stroke-linejoin="round"/>
<path d="M326.584 175.318L288.741 186.395L276.145 225.615H309.726L332.23 225.907L315.151 192.618L326.584 175.318Z" fill="#F5841F" stroke="#F5841F" stroke-width="0.712817" stroke-linecap="round" stroke-linejoin="round"/>
<path d="M377.893 194.429L380.352 152.672L391.279 122.926H342.437L353.365 152.672L355.824 194.429L356.765 207.595L356.836 240.014H376.881L376.952 207.595L377.893 194.429Z" fill="#F5841F" stroke="#F5841F" stroke-width="0.712817" stroke-linecap="round" stroke-linejoin="round"/>
</svg>
